<svg width="48" height="48" viewBox="0 0 48 48" fill="none" xmlns="http://www.w3.org/2000/svg">
<circle cx="24" cy="24" r="24" fill="#579AFF"/>
<path fill-rule="evenodd" clip-rule="evenodd" d="M24.1485 7C28.9438 7 32.8568 10.9277 32.8568 15.7411C32.8568 20.593 28.9438 24.5207 24.1485 24.5207C19.3147 24.5207 15.4017 20.593 15.4017 15.7411C15.4017 10.9277 19.3147 7 24.1485 7ZM24.1485 8.73282C27.9847 8.73282 31.1305 11.8904 31.1305 15.7411C31.1305 19.6303 27.9847 22.7879 24.1485 22.7879C20.2738 22.7879 17.1281 19.6303 17.1281 15.7411C17.1281 11.8904 20.2738 8.73282 24.1485 8.73282ZM19.3147 26.6386C22.5756 26.6386 25.8748 26.6386 29.174 26.6386C32.5115 26.6386 35.2737 29.4111 35.2737 32.7612C35.2737 34.7636 35.2737 36.766 35.2737 38.7684C35.8491 38.7684 36.4246 38.7684 37 38.7684C37 36.766 37 34.7636 37 32.7612C37 28.4485 33.4706 24.9058 29.174 24.9058C25.8748 24.9058 22.5756 24.9058 19.3147 24.9058C14.9797 24.9058 11.4887 28.4485 11.4887 32.7612C11.4887 34.7636 11.4887 36.766 11.4887 38.7684C12.0642 38.7684 12.6396 38.7684 13.215 38.7684C13.215 36.766 13.215 34.7636 13.215 32.7612C13.215 29.4111 15.9388 26.6386 19.3147 26.6386Z" fill="black"/>
<path d="M8.10895 39.6735H8.12717C8.12615 39.6661 8.12398 39.6597 8.12065 39.6542C8.11733 39.6486 8.11317 39.6439 8.10818 39.6402C8.1032 39.6364 8.09751 39.6336 8.09111 39.6317C8.08472 39.6298 8.07794 39.6288 8.07078 39.6288C8.06029 39.6288 8.05096 39.6307 8.04277 39.6346C8.03472 39.6383 8.02794 39.6434 8.02244 39.65C8.01707 39.6565 8.01298 39.6642 8.01017 39.6731C8.00735 39.6818 8.00595 39.6912 8.00595 39.7012C8.00595 39.7112 8.00723 39.7206 8.00978 39.7293C8.01247 39.738 8.01643 39.7456 8.02168 39.752C8.02692 39.7584 8.0335 39.7635 8.04143 39.7672C8.04936 39.7708 8.05863 39.7726 8.06924 39.7726C8.08676 39.7726 8.10057 39.7678 8.11068 39.7582C8.12078 39.7486 8.12673 39.7351 8.12852 39.7177H8.11029C8.10991 39.7234 8.10876 39.7287 8.10684 39.7335C8.10492 39.7384 8.10224 39.7426 8.09878 39.7462C8.09546 39.7497 8.09143 39.7525 8.0867 39.7545C8.0821 39.7564 8.07679 39.7574 8.07078 39.7574C8.0626 39.7574 8.05556 39.7559 8.04968 39.7528C8.0438 39.7497 8.03894 39.7456 8.0351 39.7405C8.03139 39.7352 8.02864 39.7291 8.02685 39.7222C8.02506 39.7151 8.02417 39.7077 8.02417 39.6998C8.02417 39.6927 8.02506 39.6857 8.02685 39.679C8.02864 39.6724 8.03139 39.6665 8.0351 39.6613C8.03894 39.6561 8.04373 39.6519 8.04949 39.6488C8.05537 39.6457 8.0624 39.6442 8.07059 39.6442C8.08018 39.6442 8.08843 39.6466 8.09533 39.6515C8.10236 39.6564 8.1069 39.6637 8.10895 39.6735Z" fill="black"/>
<path d="M8.14783 39.67V39.7695H8.16413V39.7253C8.16413 39.7188 8.16477 39.7132 8.16605 39.7083C8.16733 39.7033 8.16937 39.6991 8.17219 39.6956C8.175 39.6921 8.17871 39.6895 8.18331 39.6877C8.18792 39.6859 8.19348 39.685 8.2 39.685V39.6677C8.19118 39.6674 8.18389 39.6692 8.17813 39.6731C8.17238 39.6769 8.16752 39.6829 8.16356 39.691H8.16317V39.67H8.14783Z" fill="black"/>
<path d="M8.27777 39.7102H8.2208C8.22105 39.7064 8.22189 39.7028 8.22329 39.6995C8.2247 39.696 8.22662 39.693 8.22905 39.6904C8.23148 39.6878 8.23435 39.6858 8.23768 39.6844C8.24113 39.6829 8.24497 39.6821 8.24919 39.6821C8.25328 39.6821 8.25699 39.6829 8.26031 39.6844C8.26377 39.6858 8.26671 39.6878 8.26914 39.6904C8.27169 39.6928 8.27368 39.6958 8.27508 39.6993C8.27662 39.7027 8.27751 39.7064 8.27777 39.7102ZM8.2935 39.738H8.27738C8.27598 39.7445 8.27304 39.7494 8.26856 39.7526C8.26421 39.7558 8.25859 39.7574 8.25168 39.7574C8.24631 39.7574 8.24164 39.7565 8.23768 39.7547C8.23371 39.7529 8.23045 39.7505 8.2279 39.7476C8.22534 39.7445 8.22348 39.741 8.22233 39.7372C8.22118 39.7332 8.22067 39.729 8.2208 39.7247H8.29503C8.29529 39.7186 8.29471 39.7123 8.2933 39.7056C8.29203 39.6989 8.2896 39.6928 8.28602 39.6871C8.28256 39.6815 8.2779 39.6769 8.27201 39.6733C8.26626 39.6695 8.25897 39.6677 8.25015 39.6677C8.24337 39.6677 8.2371 39.669 8.23135 39.6715C8.22572 39.6741 8.2208 39.6777 8.21658 39.6823C8.21249 39.6869 8.20929 39.6924 8.20699 39.6987C8.20469 39.705 8.20354 39.7119 8.20354 39.7195C8.20379 39.7271 8.20488 39.734 8.2068 39.7405C8.20884 39.7469 8.21185 39.7524 8.21581 39.757C8.21978 39.7616 8.22464 39.7652 8.23039 39.7678C8.23627 39.7704 8.24318 39.7717 8.25111 39.7717C8.26236 39.7717 8.27169 39.7688 8.27911 39.7632C8.28653 39.7575 8.29132 39.7491 8.2935 39.738Z" fill="black"/>
<path d="M8.39978 39.7692C8.39697 39.7708 8.39307 39.7717 8.38808 39.7717C8.38386 39.7717 8.38047 39.7705 8.37792 39.7682C8.37549 39.7658 8.37427 39.7618 8.37427 39.7564C8.3698 39.7618 8.36455 39.7658 8.35854 39.7682C8.35266 39.7705 8.34627 39.7717 8.33936 39.7717C8.33489 39.7717 8.3306 39.7711 8.32651 39.7701C8.32255 39.7691 8.31909 39.7675 8.31615 39.7653C8.31321 39.7631 8.31084 39.7603 8.30905 39.7568C8.30739 39.7532 8.30656 39.7489 8.30656 39.7439C8.30656 39.7383 8.30752 39.7337 8.30944 39.7301C8.31136 39.7265 8.31385 39.7236 8.31692 39.7214C8.32012 39.7191 8.3237 39.7174 8.32766 39.7162C8.33175 39.715 8.33591 39.7141 8.34013 39.7133C8.3446 39.7124 8.34882 39.7118 8.35279 39.7114C8.35688 39.7109 8.36046 39.7102 8.36353 39.7095C8.3666 39.7086 8.36903 39.7073 8.37082 39.7058C8.37261 39.7041 8.3735 39.7018 8.3735 39.6987C8.3735 39.6951 8.3728 39.6922 8.37139 39.69C8.37012 39.6878 8.36839 39.6862 8.36622 39.685C8.36417 39.6839 8.3618 39.6831 8.35912 39.6827C8.35656 39.6823 8.354 39.6821 8.35145 39.6821C8.34454 39.6821 8.33879 39.6835 8.33418 39.6862C8.32958 39.6887 8.32709 39.6937 8.3267 39.701H8.3104C8.31065 39.6948 8.31193 39.6896 8.31423 39.6854C8.31654 39.6812 8.3196 39.6778 8.32344 39.6752C8.32728 39.6725 8.33162 39.6706 8.33648 39.6694C8.34147 39.6683 8.34678 39.6677 8.3524 39.6677C8.35688 39.6677 8.36129 39.668 8.36564 39.6686C8.37012 39.6693 8.37414 39.6706 8.37772 39.6727C8.3813 39.6746 8.38418 39.6774 8.38636 39.681C8.38853 39.6846 8.38962 39.6892 8.38962 39.695V39.7462C8.38962 39.7501 8.38981 39.7529 8.39019 39.7547C8.3907 39.7565 8.39224 39.7574 8.3948 39.7574C8.3962 39.7574 8.39786 39.7571 8.39978 39.7564V39.7692ZM8.37331 39.7181C8.37127 39.7197 8.36858 39.7208 8.36526 39.7216C8.36193 39.7222 8.35841 39.7228 8.35471 39.7233C8.35113 39.7237 8.34748 39.7242 8.34377 39.7249C8.34006 39.7254 8.33674 39.7263 8.3338 39.7276C8.33086 39.7288 8.32843 39.7307 8.32651 39.7331C8.32472 39.7355 8.32382 39.7387 8.32382 39.7428C8.32382 39.7455 8.32434 39.7478 8.32536 39.7497C8.32651 39.7515 8.32792 39.753 8.32958 39.7541C8.33137 39.7553 8.33341 39.7561 8.33572 39.7566C8.33802 39.7571 8.34045 39.7574 8.34301 39.7574C8.34838 39.7574 8.35298 39.7567 8.35682 39.7553C8.36065 39.7537 8.36379 39.7519 8.36622 39.7497C8.36864 39.7474 8.37044 39.745 8.37159 39.7424C8.37274 39.7397 8.37331 39.7372 8.37331 39.7349V39.7181Z" fill="black"/>
<path d="M8.43759 39.67V39.6402H8.42129V39.67H8.40441V39.6844H8.42129V39.7478C8.42129 39.7524 8.42173 39.7561 8.42263 39.7589C8.42352 39.7618 8.42487 39.764 8.42666 39.7655C8.42858 39.767 8.43101 39.7681 8.43395 39.7688C8.43702 39.7693 8.44066 39.7695 8.44488 39.7695H8.45735V39.7551H8.44987C8.44731 39.7551 8.4452 39.755 8.44354 39.7549C8.442 39.7546 8.44079 39.7542 8.43989 39.7536C8.439 39.7529 8.43836 39.752 8.43797 39.7509C8.43772 39.7497 8.43759 39.7482 8.43759 39.7462V39.6844H8.45735V39.67H8.43759Z" fill="black"/>
<path d="M8.54432 39.7102H8.48735C8.48761 39.7064 8.48844 39.7028 8.48985 39.6995C8.49125 39.696 8.49317 39.693 8.4956 39.6904C8.49803 39.6878 8.50091 39.6858 8.50423 39.6844C8.50769 39.6829 8.51152 39.6821 8.51574 39.6821C8.51983 39.6821 8.52354 39.6829 8.52687 39.6844C8.53032 39.6858 8.53326 39.6878 8.53569 39.6904C8.53825 39.6928 8.54023 39.6958 8.54164 39.6993C8.54317 39.7027 8.54407 39.7064 8.54432 39.7102ZM8.56005 39.738H8.54394C8.54253 39.7445 8.53959 39.7494 8.53512 39.7526C8.53077 39.7558 8.52514 39.7574 8.51824 39.7574C8.51286 39.7574 8.5082 39.7565 8.50423 39.7547C8.50027 39.7529 8.49701 39.7505 8.49445 39.7476C8.49189 39.7445 8.49004 39.741 8.48889 39.7372C8.48774 39.7332 8.48723 39.729 8.48735 39.7247H8.56159C8.56184 39.7186 8.56127 39.7123 8.55986 39.7056C8.55858 39.6989 8.55615 39.6928 8.55257 39.6871C8.54912 39.6815 8.54445 39.6769 8.53857 39.6733C8.53281 39.6695 8.52552 39.6677 8.5167 39.6677C8.50992 39.6677 8.50366 39.669 8.4979 39.6715C8.49228 39.6741 8.48735 39.6777 8.48313 39.6823C8.47904 39.6869 8.47584 39.6924 8.47354 39.6987C8.47124 39.705 8.47009 39.7119 8.47009 39.7195C8.47035 39.7271 8.47143 39.734 8.47335 39.7405C8.4754 39.7469 8.4784 39.7524 8.48237 39.757C8.48633 39.7616 8.49119 39.7652 8.49694 39.7678C8.50283 39.7704 8.50973 39.7717 8.51766 39.7717C8.52891 39.7717 8.53825 39.7688 8.54566 39.7632C8.55308 39.7575 8.55788 39.7491 8.56005 39.738Z" fill="black"/>
<path d="M8.59038 39.7206C8.59038 39.7158 8.59089 39.711 8.59191 39.7064C8.59294 39.7018 8.5946 39.6977 8.5969 39.6941C8.5992 39.6905 8.60227 39.6876 8.60611 39.6854C8.60994 39.6832 8.61461 39.6821 8.62011 39.6821C8.62574 39.6821 8.63053 39.6832 8.6345 39.6854C8.63846 39.6875 8.64166 39.6902 8.64409 39.6937C8.64664 39.6971 8.6485 39.7012 8.64965 39.7058C8.6508 39.7103 8.65138 39.715 8.65138 39.7199C8.65138 39.7245 8.6508 39.729 8.64965 39.7335C8.64863 39.738 8.6469 39.7421 8.64447 39.7457C8.64204 39.7491 8.63891 39.752 8.63507 39.7541C8.63123 39.7563 8.62657 39.7574 8.62107 39.7574C8.61583 39.7574 8.61122 39.7564 8.60726 39.7543C8.60342 39.7523 8.60023 39.7495 8.59767 39.746C8.59524 39.7426 8.59338 39.7387 8.5921 39.7343C8.59095 39.7298 8.59038 39.7253 8.59038 39.7206ZM8.6671 39.7695V39.6321H8.6508V39.6833H8.65042C8.64863 39.6803 8.64639 39.6779 8.6437 39.676C8.64115 39.6739 8.6384 39.6723 8.63545 39.6712C8.63251 39.6699 8.62957 39.669 8.62663 39.6685C8.62369 39.6679 8.62094 39.6677 8.61838 39.6677C8.61084 39.6677 8.60419 39.6691 8.59843 39.6719C8.59281 39.6746 8.58808 39.6783 8.58424 39.6831C8.58053 39.6877 8.57772 39.6932 8.5758 39.6995C8.57401 39.7057 8.57312 39.7124 8.57312 39.7195C8.57312 39.7265 8.57407 39.7332 8.57599 39.7395C8.57791 39.7458 8.58072 39.7513 8.58443 39.7561C8.58827 39.7608 8.593 39.7646 8.59863 39.7674C8.60438 39.7702 8.61109 39.7717 8.61877 39.7717C8.62567 39.7717 8.632 39.7704 8.63776 39.768C8.64351 39.7656 8.64773 39.7616 8.65042 39.7561H8.6508V39.7695H8.6671Z" fill="black"/>
<path d="M8.74615 39.6321V39.7695H8.76245V39.7563H8.76284C8.76463 39.7592 8.7668 39.7617 8.76936 39.7638C8.77204 39.7657 8.77486 39.7672 8.7778 39.7684C8.78074 39.7695 8.78368 39.7704 8.78662 39.7709C8.78969 39.7714 8.79244 39.7717 8.79487 39.7717C8.80242 39.7717 8.809 39.7703 8.81463 39.7676C8.82038 39.7649 8.82511 39.7613 8.82882 39.7566C8.83266 39.7519 8.83547 39.7464 8.83726 39.7401C8.83918 39.7338 8.84014 39.7271 8.84014 39.7201C8.84014 39.713 8.83918 39.7063 8.83726 39.7C8.83534 39.6937 8.83247 39.6882 8.82863 39.6835C8.82492 39.6786 8.82019 39.6747 8.81444 39.6719C8.80881 39.6691 8.80216 39.6677 8.79449 39.6677C8.78758 39.6677 8.78125 39.669 8.7755 39.6715C8.76974 39.674 8.76552 39.678 8.76284 39.6835H8.76245V39.6321H8.74615ZM8.82288 39.7189C8.82288 39.7238 8.82236 39.7285 8.82134 39.7331C8.82032 39.7378 8.81866 39.7419 8.81635 39.7455C8.81405 39.7491 8.81098 39.752 8.80715 39.7541C8.80344 39.7563 8.79877 39.7574 8.79314 39.7574C8.78752 39.7574 8.78272 39.7564 8.77876 39.7543C8.77479 39.7521 8.77153 39.7493 8.76898 39.7459C8.76655 39.7424 8.76476 39.7384 8.7636 39.7339C8.76245 39.7293 8.76188 39.7245 8.76188 39.7197C8.76188 39.715 8.76239 39.7105 8.76341 39.706C8.76456 39.7015 8.76635 39.6975 8.76878 39.6941C8.77121 39.6905 8.77435 39.6876 8.77818 39.6854C8.78202 39.6832 8.78669 39.6821 8.79219 39.6821C8.79743 39.6821 8.80197 39.6832 8.8058 39.6852C8.80977 39.6873 8.81296 39.69 8.81539 39.6935C8.81795 39.697 8.81981 39.7009 8.82096 39.7054C8.82224 39.7098 8.82288 39.7143 8.82288 39.7189Z" fill="black"/>
<path d="M8.89821 39.7828C8.8963 39.7877 8.89438 39.7918 8.89246 39.7951C8.89067 39.7985 8.88862 39.8012 8.88632 39.8032C8.88415 39.8054 8.88165 39.807 8.87884 39.8079C8.87616 39.8089 8.87302 39.8094 8.86944 39.8094C8.86752 39.8094 8.86561 39.8093 8.86369 39.809C8.86177 39.8087 8.85992 39.8083 8.85813 39.8077V39.7926C8.85953 39.7933 8.86113 39.7938 8.86292 39.7942C8.86484 39.7947 8.86644 39.7949 8.86772 39.7949C8.87104 39.7949 8.87379 39.7941 8.87596 39.7924C8.87827 39.7909 8.87999 39.7887 8.88114 39.7857L8.88786 39.769L8.84853 39.67H8.86695L8.89591 39.7514H8.8963L8.92411 39.67H8.94137L8.89821 39.7828Z" fill="black"/>
<path d="M9.09642 39.7692C9.09361 39.7708 9.08971 39.7717 9.08472 39.7717C9.0805 39.7717 9.07711 39.7705 9.07455 39.7682C9.07212 39.7658 9.07091 39.7618 9.07091 39.7564C9.06643 39.7618 9.06119 39.7658 9.05518 39.7682C9.0493 39.7705 9.0429 39.7717 9.036 39.7717C9.03152 39.7717 9.02724 39.7711 9.02315 39.7701C9.01918 39.7691 9.01573 39.7675 9.01279 39.7653C9.00985 39.7631 9.00748 39.7603 9.00569 39.7568C9.00403 39.7532 9.0032 39.7489 9.0032 39.7439C9.0032 39.7383 9.00416 39.7337 9.00608 39.7301C9.00799 39.7265 9.01049 39.7236 9.01356 39.7214C9.01675 39.7191 9.02033 39.7174 9.0243 39.7162C9.02839 39.715 9.03255 39.7141 9.03677 39.7133C9.04124 39.7124 9.04546 39.7118 9.04943 39.7114C9.05352 39.7109 9.0571 39.7102 9.06017 39.7095C9.06324 39.7086 9.06567 39.7073 9.06746 39.7058C9.06925 39.7041 9.07014 39.7018 9.07014 39.6987C9.07014 39.6951 9.06944 39.6922 9.06803 39.69C9.06675 39.6878 9.06503 39.6862 9.06285 39.685C9.06081 39.6839 9.05844 39.6831 9.05576 39.6827C9.0532 39.6823 9.05064 39.6821 9.04808 39.6821C9.04118 39.6821 9.03542 39.6835 9.03082 39.6862C9.02622 39.6887 9.02372 39.6937 9.02334 39.701H9.00703C9.00729 39.6948 9.00857 39.6896 9.01087 39.6854C9.01317 39.6812 9.01624 39.6778 9.02008 39.6752C9.02391 39.6725 9.02826 39.6706 9.03312 39.6694C9.03811 39.6683 9.04342 39.6677 9.04904 39.6677C9.05352 39.6677 9.05793 39.668 9.06228 39.6686C9.06675 39.6693 9.07078 39.6706 9.07436 39.6727C9.07794 39.6746 9.08082 39.6774 9.08299 39.681C9.08517 39.6846 9.08625 39.6892 9.08625 39.695V39.7462C9.08625 39.7501 9.08645 39.7529 9.08683 39.7547C9.08734 39.7565 9.08888 39.7574 9.09143 39.7574C9.09284 39.7574 9.0945 39.7571 9.09642 39.7564V39.7692ZM9.06995 39.7181C9.0679 39.7197 9.06522 39.7208 9.06189 39.7216C9.05857 39.7222 9.05505 39.7228 9.05134 39.7233C9.04776 39.7237 9.04412 39.7242 9.04041 39.7249C9.0367 39.7254 9.03338 39.7263 9.03044 39.7276C9.0275 39.7288 9.02507 39.7307 9.02315 39.7331C9.02136 39.7355 9.02046 39.7387 9.02046 39.7428C9.02046 39.7455 9.02097 39.7478 9.022 39.7497C9.02315 39.7515 9.02455 39.753 9.02622 39.7541C9.02801 39.7553 9.03005 39.7561 9.03235 39.7566C9.03466 39.7571 9.03709 39.7574 9.03964 39.7574C9.04501 39.7574 9.04962 39.7567 9.05345 39.7553C9.05729 39.7537 9.06042 39.7519 9.06285 39.7497C9.06528 39.7474 9.06707 39.745 9.06822 39.7424C9.06937 39.7397 9.06995 39.7372 9.06995 39.7349V39.7181Z" fill="black"/>
<path d="M9.11159 39.67V39.7695H9.1279V39.7075C9.1279 39.7056 9.12835 39.7032 9.12924 39.7004C9.13026 39.6975 9.1318 39.6946 9.13385 39.6919C9.13602 39.6892 9.13877 39.6869 9.14209 39.685C9.14555 39.6831 9.14964 39.6821 9.15437 39.6821C9.15808 39.6821 9.16108 39.6827 9.16338 39.6839C9.16581 39.6849 9.16773 39.6864 9.16914 39.6885C9.17055 39.6904 9.1715 39.6927 9.17202 39.6954C9.17266 39.6981 9.17298 39.7011 9.17298 39.7043V39.7695H9.18928V39.7075C9.18928 39.6998 9.19158 39.6937 9.19618 39.6891C9.20079 39.6844 9.20712 39.6821 9.21517 39.6821C9.21914 39.6821 9.22234 39.6827 9.22477 39.6839C9.22732 39.685 9.2293 39.6866 9.23071 39.6887C9.23212 39.6906 9.23308 39.6929 9.23359 39.6956C9.2341 39.6983 9.23436 39.7012 9.23436 39.7043V39.7695H9.25066V39.6966C9.25066 39.6914 9.24983 39.6871 9.24817 39.6835C9.24663 39.6798 9.24439 39.6767 9.24145 39.6744C9.23864 39.6721 9.23519 39.6704 9.23109 39.6694C9.22713 39.6683 9.22265 39.6677 9.21767 39.6677C9.21115 39.6677 9.20514 39.6692 9.19964 39.6721C9.19427 39.6751 9.18992 39.6792 9.18659 39.6846C9.18455 39.6785 9.18103 39.6741 9.17604 39.6715C9.17106 39.669 9.16549 39.6677 9.15936 39.6677C9.14542 39.6677 9.13474 39.6733 9.12732 39.6846H9.12694V39.67H9.11159Z" fill="black"/>
<path d="M9.36297 39.7692C9.36016 39.7708 9.35626 39.7717 9.35127 39.7717C9.34705 39.7717 9.34367 39.7705 9.34111 39.7682C9.33868 39.7658 9.33746 39.7618 9.33746 39.7564C9.33299 39.7618 9.32774 39.7658 9.32173 39.7682C9.31585 39.7705 9.30946 39.7717 9.30255 39.7717C9.29808 39.7717 9.29379 39.7711 9.2897 39.7701C9.28574 39.7691 9.28228 39.7675 9.27934 39.7653C9.2764 39.7631 9.27404 39.7603 9.27225 39.7568C9.27058 39.7532 9.26975 39.7489 9.26975 39.7439C9.26975 39.7383 9.27071 39.7337 9.27263 39.7301C9.27455 39.7265 9.27704 39.7236 9.28011 39.7214C9.28331 39.7191 9.28689 39.7174 9.29085 39.7162C9.29494 39.715 9.2991 39.7141 9.30332 39.7133C9.3078 39.7124 9.31202 39.7118 9.31598 39.7114C9.32007 39.7109 9.32365 39.7102 9.32672 39.7095C9.32979 39.7086 9.33222 39.7073 9.33401 39.7058C9.3358 39.7041 9.3367 39.7018 9.3367 39.6987C9.3367 39.6951 9.33599 39.6922 9.33459 39.69C9.33331 39.6878 9.33158 39.6862 9.32941 39.685C9.32736 39.6839 9.325 39.6831 9.32231 39.6827C9.31975 39.6823 9.31719 39.6821 9.31464 39.6821C9.30773 39.6821 9.30198 39.6835 9.29737 39.6862C9.29277 39.6887 9.29028 39.6937 9.28989 39.701H9.27359C9.27384 39.6948 9.27512 39.6896 9.27743 39.6854C9.27973 39.6812 9.2828 39.6778 9.28663 39.6752C9.29047 39.6725 9.29482 39.6706 9.29968 39.6694C9.30466 39.6683 9.30997 39.6677 9.3156 39.6677C9.32007 39.6677 9.32448 39.668 9.32883 39.6686C9.33331 39.6693 9.33734 39.6706 9.34092 39.6727C9.3445 39.6746 9.34737 39.6774 9.34955 39.681C9.35172 39.6846 9.35281 39.6892 9.35281 39.695V39.7462C9.35281 39.7501 9.353 39.7529 9.35338 39.7547C9.3539 39.7565 9.35543 39.7574 9.35799 39.7574C9.35939 39.7574 9.36106 39.7571 9.36297 39.7564V39.7692ZM9.3365 39.7181C9.33446 39.7197 9.33177 39.7208 9.32845 39.7216C9.32512 39.7222 9.32161 39.7228 9.3179 39.7233C9.31432 39.7237 9.31067 39.7242 9.30696 39.7249C9.30326 39.7254 9.29993 39.7263 9.29699 39.7276C9.29405 39.7288 9.29162 39.7307 9.2897 39.7331C9.28791 39.7355 9.28702 39.7387 9.28702 39.7428C9.28702 39.7455 9.28753 39.7478 9.28855 39.7497C9.2897 39.7515 9.29111 39.753 9.29277 39.7541C9.29456 39.7553 9.29661 39.7561 9.29891 39.7566C9.30121 39.7571 9.30364 39.7574 9.3062 39.7574C9.31157 39.7574 9.31617 39.7567 9.32001 39.7553C9.32384 39.7537 9.32698 39.7519 9.32941 39.7497C9.33184 39.7474 9.33363 39.745 9.33478 39.7424C9.33593 39.7397 9.3365 39.7372 9.3365 39.7349V39.7181Z" fill="black"/>
<path d="M9.37815 39.67V39.7695H9.39445V39.7133C9.39445 39.7088 9.39503 39.7047 9.39618 39.701C9.39746 39.6971 9.39931 39.6938 9.40174 39.691C9.40417 39.6882 9.40718 39.686 9.41076 39.6844C9.41447 39.6829 9.41881 39.6821 9.4238 39.6821C9.43007 39.6821 9.43499 39.6839 9.43857 39.6875C9.44215 39.6911 9.44394 39.696 9.44394 39.7021V39.7695H9.46025V39.7041C9.46025 39.6987 9.45967 39.6938 9.45852 39.6894C9.4575 39.6849 9.45564 39.6811 9.45296 39.6779C9.45027 39.6747 9.44675 39.6722 9.44241 39.6704C9.43806 39.6686 9.43262 39.6677 9.4261 39.6677C9.4114 39.6677 9.40065 39.6737 9.39388 39.6858H9.39349V39.67H9.37815Z" fill="black"/>
<path d="M9.50737 39.67V39.6402H9.49106V39.67H9.47418V39.6844H9.49106V39.7478C9.49106 39.7524 9.49151 39.7561 9.49241 39.7589C9.4933 39.7618 9.49464 39.764 9.49643 39.7655C9.49835 39.767 9.50078 39.7681 9.50372 39.7688C9.50679 39.7693 9.51044 39.7695 9.51466 39.7695H9.52712V39.7551H9.51964C9.51709 39.7551 9.51498 39.755 9.51331 39.7549C9.51178 39.7546 9.51056 39.7542 9.50967 39.7536C9.50877 39.7529 9.50813 39.752 9.50775 39.7509C9.5075 39.7497 9.50737 39.7482 9.50737 39.7462V39.6844H9.52712V39.67H9.50737Z" fill="black"/>
<path d="M9.63309 39.7692C9.63027 39.7708 9.62637 39.7717 9.62139 39.7717C9.61717 39.7717 9.61378 39.7705 9.61122 39.7682C9.60879 39.7658 9.60758 39.7618 9.60758 39.7564C9.6031 39.7618 9.59786 39.7658 9.59185 39.7682C9.58597 39.7705 9.57957 39.7717 9.57267 39.7717C9.56819 39.7717 9.56391 39.7711 9.55981 39.7701C9.55585 39.7691 9.5524 39.7675 9.54946 39.7653C9.54652 39.7631 9.54415 39.7603 9.54236 39.7568C9.5407 39.7532 9.53987 39.7489 9.53987 39.7439C9.53987 39.7383 9.54083 39.7337 9.54274 39.7301C9.54466 39.7265 9.54716 39.7236 9.55022 39.7214C9.55342 39.7191 9.557 39.7174 9.56097 39.7162C9.56506 39.715 9.56921 39.7141 9.57343 39.7133C9.57791 39.7124 9.58213 39.7118 9.58609 39.7114C9.59019 39.7109 9.59377 39.7102 9.59683 39.7095C9.5999 39.7086 9.60233 39.7073 9.60412 39.7058C9.60591 39.7041 9.60681 39.7018 9.60681 39.6987C9.60681 39.6951 9.60611 39.6922 9.6047 39.69C9.60342 39.6878 9.60169 39.6862 9.59952 39.685C9.59747 39.6839 9.59511 39.6831 9.59242 39.6827C9.58987 39.6823 9.58731 39.6821 9.58475 39.6821C9.57785 39.6821 9.57209 39.6835 9.56749 39.6862C9.56288 39.6887 9.56039 39.6937 9.56001 39.701H9.5437C9.54396 39.6948 9.54524 39.6896 9.54754 39.6854C9.54984 39.6812 9.55291 39.6778 9.55675 39.6752C9.56058 39.6725 9.56493 39.6706 9.56979 39.6694C9.57478 39.6683 9.58008 39.6677 9.58571 39.6677C9.59019 39.6677 9.5946 39.668 9.59894 39.6686C9.60342 39.6693 9.60745 39.6706 9.61103 39.6727C9.61461 39.6746 9.61749 39.6774 9.61966 39.681C9.62183 39.6846 9.62292 39.6892 9.62292 39.695V39.7462C9.62292 39.7501 9.62311 39.7529 9.6235 39.7547C9.62401 39.7565 9.62554 39.7574 9.6281 39.7574C9.62951 39.7574 9.63117 39.7571 9.63309 39.7564V39.7692ZM9.60662 39.7181C9.60457 39.7197 9.60189 39.7208 9.59856 39.7216C9.59524 39.7222 9.59172 39.7228 9.58801 39.7233C9.58443 39.7237 9.58079 39.7242 9.57708 39.7249C9.57337 39.7254 9.57005 39.7263 9.5671 39.7276C9.56416 39.7288 9.56173 39.7307 9.55981 39.7331C9.55802 39.7355 9.55713 39.7387 9.55713 39.7428C9.55713 39.7455 9.55764 39.7478 9.55866 39.7497C9.55981 39.7515 9.56122 39.753 9.56288 39.7541C9.56467 39.7553 9.56672 39.7561 9.56902 39.7566C9.57132 39.7571 9.57375 39.7574 9.57631 39.7574C9.58168 39.7574 9.58629 39.7567 9.59012 39.7553C9.59396 39.7537 9.59709 39.7519 9.59952 39.7497C9.60195 39.7474 9.60374 39.745 9.60489 39.7424C9.60604 39.7397 9.60662 39.7372 9.60662 39.7349V39.7181Z" fill="black"/>
<path d="M9.64922 39.6321V39.7695H9.66553V39.7318L9.68087 39.7176L9.71482 39.7695H9.73554L9.69334 39.7062L9.73266 39.67H9.71079L9.66553 39.7135V39.6321H9.64922Z" fill="black"/>
<path d="M9.83558 39.7692C9.83277 39.7708 9.82887 39.7717 9.82388 39.7717C9.81966 39.7717 9.81627 39.7705 9.81371 39.7682C9.81128 39.7658 9.81007 39.7618 9.81007 39.7564C9.80559 39.7618 9.80035 39.7658 9.79434 39.7682C9.78846 39.7705 9.78206 39.7717 9.77516 39.7717C9.77068 39.7717 9.7664 39.7711 9.76231 39.7701C9.75834 39.7691 9.75489 39.7675 9.75195 39.7653C9.74901 39.7631 9.74664 39.7603 9.74485 39.7568C9.74319 39.7532 9.74236 39.7489 9.74236 39.7439C9.74236 39.7383 9.74332 39.7337 9.74523 39.7301C9.74715 39.7265 9.74965 39.7236 9.75272 39.7214C9.75591 39.7191 9.75949 39.7174 9.76346 39.7162C9.76755 39.715 9.77171 39.7141 9.77592 39.7133C9.7804 39.7124 9.78462 39.7118 9.78858 39.7114C9.79268 39.7109 9.79626 39.7102 9.79933 39.7095C9.8024 39.7086 9.80483 39.7073 9.80662 39.7058C9.80841 39.7041 9.8093 39.7018 9.8093 39.6987C9.8093 39.6951 9.8086 39.6922 9.80719 39.69C9.80591 39.6878 9.80419 39.6862 9.80201 39.685C9.79997 39.6839 9.7976 39.6831 9.79491 39.6827C9.79236 39.6823 9.7898 39.6821 9.78724 39.6821C9.78034 39.6821 9.77458 39.6835 9.76998 39.6862C9.76538 39.6887 9.76288 39.6937 9.7625 39.701H9.74619C9.74645 39.6948 9.74773 39.6896 9.75003 39.6854C9.75233 39.6812 9.7554 39.6778 9.75924 39.6752C9.76307 39.6725 9.76742 39.6706 9.77228 39.6694C9.77727 39.6683 9.78257 39.6677 9.7882 39.6677C9.79268 39.6677 9.79709 39.668 9.80144 39.6686C9.80591 39.6693 9.80994 39.6706 9.81352 39.6727C9.8171 39.6746 9.81998 39.6774 9.82215 39.681C9.82433 39.6846 9.82541 39.6892 9.82541 39.695V39.7462C9.82541 39.7501 9.8256 39.7529 9.82599 39.7547C9.8265 39.7565 9.82803 39.7574 9.83059 39.7574C9.832 39.7574 9.83366 39.7571 9.83558 39.7564V39.7692ZM9.80911 39.7181C9.80706 39.7197 9.80438 39.7208 9.80105 39.7216C9.79773 39.7222 9.79421 39.7228 9.7905 39.7233C9.78692 39.7237 9.78328 39.7242 9.77957 39.7249C9.77586 39.7254 9.77254 39.7263 9.7696 39.7276C9.76665 39.7288 9.76422 39.7307 9.76231 39.7331C9.76052 39.7355 9.75962 39.7387 9.75962 39.7428C9.75962 39.7455 9.76013 39.7478 9.76116 39.7497C9.76231 39.7515 9.76371 39.753 9.76538 39.7541C9.76717 39.7553 9.76921 39.7561 9.77151 39.7566C9.77382 39.7571 9.77624 39.7574 9.7788 39.7574C9.78417 39.7574 9.78878 39.7567 9.79261 39.7553C9.79645 39.7537 9.79958 39.7519 9.80201 39.7497C9.80444 39.7474 9.80623 39.745 9.80738 39.7424C9.80853 39.7397 9.80911 39.7372 9.80911 39.7349V39.7181Z" fill="black"/>
<path d="M8.01669 39.877V39.9621H8.03299V39.877H8.05217V39.8625H8.03299V39.8487C8.03299 39.8443 8.03408 39.8414 8.03625 39.8398C8.03843 39.8383 8.0415 39.8375 8.04546 39.8375C8.04687 39.8375 8.0484 39.8376 8.05006 39.8379C8.05173 39.838 8.05326 39.8383 8.05467 39.8388V39.8246C8.05313 39.8241 8.05134 39.8237 8.0493 39.8234C8.04738 39.8232 8.04565 39.8231 8.04412 39.8231C8.03517 39.8231 8.02832 39.8252 8.02359 39.8294C8.01899 39.8335 8.01669 39.8396 8.01669 39.8477V39.8625H8V39.877H8.01669Z" fill="black"/>
<path d="M8.06616 39.8625V39.9621H8.08246V39.9178C8.08246 39.9114 8.0831 39.9057 8.08438 39.9008C8.08566 39.8958 8.0877 39.8916 8.09052 39.8881C8.09333 39.8847 8.09704 39.882 8.10164 39.8802C8.10625 39.8784 8.11181 39.8775 8.11833 39.8775V39.8602C8.10951 39.86 8.10222 39.8618 8.09646 39.8656C8.09071 39.8695 8.08585 39.8754 8.08189 39.8835H8.0815V39.8625H8.06616Z" fill="black"/>
<path d="M8.13913 39.9124C8.13913 39.9064 8.1399 39.901 8.14143 39.8964C8.14309 39.8917 8.14533 39.8877 8.14814 39.8845C8.15096 39.8813 8.15422 39.8788 8.15793 39.8772C8.16176 39.8755 8.16579 39.8747 8.17001 39.8747C8.17423 39.8747 8.17819 39.8755 8.1819 39.8772C8.18574 39.8788 8.18906 39.8813 8.19188 39.8845C8.19469 39.8877 8.19686 39.8917 8.1984 39.8964C8.20006 39.901 8.20089 39.9064 8.20089 39.9124C8.20089 39.9184 8.20006 39.9238 8.1984 39.9286C8.19686 39.9332 8.19469 39.9371 8.19188 39.9403C8.18906 39.9434 8.18574 39.9458 8.1819 39.9474C8.17819 39.9491 8.17423 39.9499 8.17001 39.9499C8.16579 39.9499 8.16176 39.9491 8.15793 39.9474C8.15422 39.9458 8.15096 39.9434 8.14814 39.9403C8.14533 39.9371 8.14309 39.9332 8.14143 39.9286C8.1399 39.9238 8.13913 39.9184 8.13913 39.9124ZM8.12186 39.9124C8.12186 39.9197 8.12289 39.9265 8.12493 39.9328C8.12698 39.9391 8.13005 39.9446 8.13414 39.9494C8.13823 39.954 8.14328 39.9576 8.14929 39.9603C8.1553 39.9629 8.16221 39.9642 8.17001 39.9642C8.17794 39.9642 8.18484 39.9629 8.19073 39.9603C8.19674 39.9576 8.20179 39.954 8.20588 39.9494C8.20997 39.9446 8.21304 39.9391 8.21509 39.9328C8.21713 39.9265 8.21816 39.9197 8.21816 39.9124C8.21816 39.9051 8.21713 39.8983 8.21509 39.892C8.21304 39.8856 8.20997 39.8801 8.20588 39.8754C8.20179 39.8707 8.19674 39.867 8.19073 39.8643C8.18484 39.8616 8.17794 39.8602 8.17001 39.8602C8.16221 39.8602 8.1553 39.8616 8.14929 39.8643C8.14328 39.867 8.13823 39.8707 8.13414 39.8754C8.13005 39.8801 8.12698 39.8856 8.12493 39.892C8.12289 39.8983 8.12186 39.9051 8.12186 39.9124Z" fill="black"/>
<path d="M8.23738 39.8625V39.9621H8.25368V39.9001C8.25368 39.8982 8.25413 39.8958 8.25503 39.893C8.25605 39.89 8.25758 39.8872 8.25963 39.8845C8.2618 39.8818 8.26455 39.8795 8.26788 39.8775C8.27133 39.8756 8.27542 39.8747 8.28015 39.8747C8.28386 39.8747 8.28687 39.8752 8.28917 39.8764C8.2916 39.8774 8.29352 39.879 8.29492 39.881C8.29633 39.8829 8.29729 39.8853 8.2978 39.8879C8.29844 39.8906 8.29876 39.8936 8.29876 39.8968V39.9621H8.31506V39.9001C8.31506 39.8924 8.31737 39.8862 8.32197 39.8816C8.32657 39.877 8.3329 39.8747 8.34096 39.8747C8.34492 39.8747 8.34812 39.8752 8.35055 39.8764C8.35311 39.8775 8.35509 39.8792 8.3565 39.8812C8.3579 39.8831 8.35886 39.8854 8.35937 39.8881C8.35988 39.8908 8.36014 39.8937 8.36014 39.8968V39.9621H8.37644V39.8891C8.37644 39.884 8.37561 39.8796 8.37395 39.876C8.37242 39.8723 8.37018 39.8693 8.36724 39.867C8.36442 39.8646 8.36097 39.863 8.35688 39.862C8.35292 39.8608 8.34844 39.8602 8.34345 39.8602C8.33693 39.8602 8.33092 39.8617 8.32542 39.8646C8.32005 39.8676 8.3157 39.8718 8.31238 39.8772C8.31033 39.871 8.30682 39.8666 8.30183 39.8641C8.29684 39.8615 8.29128 39.8602 8.28514 39.8602C8.2712 39.8602 8.26052 39.8659 8.25311 39.8772H8.25272V39.8625H8.23738Z" fill="black"/>
<path d="M8.47693 39.8625V39.8327H8.46062V39.8625H8.44374V39.877H8.46062V39.9403C8.46062 39.9449 8.46107 39.9487 8.46197 39.9515C8.46286 39.9543 8.4642 39.9565 8.46599 39.958C8.46791 39.9596 8.47034 39.9607 8.47328 39.9613C8.47635 39.9618 8.48 39.9621 8.48422 39.9621H8.49668V39.9476H8.4892C8.48665 39.9476 8.48454 39.9476 8.48287 39.9474C8.48134 39.9472 8.48012 39.9467 8.47923 39.9461C8.47833 39.9455 8.4777 39.9446 8.47731 39.9434C8.47706 39.9422 8.47693 39.9407 8.47693 39.9388V39.877H8.49668V39.8625H8.47693Z" fill="black"/>
<path d="M8.5148 39.8246V39.9621H8.5311V39.9059C8.5311 39.9014 8.53168 39.8972 8.53283 39.8935C8.53411 39.8897 8.53596 39.8863 8.53839 39.8835C8.54082 39.8807 8.54383 39.8785 8.54741 39.877C8.55111 39.8754 8.55546 39.8747 8.56045 39.8747C8.56672 39.8747 8.57164 39.8765 8.57522 39.8801C8.5788 39.8836 8.58059 39.8885 8.58059 39.8947V39.9621H8.59689V39.8966C8.59689 39.8912 8.59632 39.8863 8.59517 39.882C8.59414 39.8775 8.59229 39.8736 8.58961 39.8704C8.58692 39.8672 8.5834 39.8647 8.57906 39.8629C8.57471 39.8611 8.56927 39.8602 8.56275 39.8602C8.55981 39.8602 8.55674 39.8605 8.55354 39.8612C8.55048 39.8618 8.54747 39.8629 8.54453 39.8643C8.54172 39.8655 8.53916 39.8673 8.53686 39.8695C8.53455 39.8715 8.53276 39.8741 8.53149 39.8772H8.5311V39.8246H8.5148Z" fill="black"/>
<path d="M8.69024 39.9028H8.63327C8.63353 39.8989 8.63436 39.8953 8.63577 39.892C8.63717 39.8885 8.63909 39.8855 8.64152 39.8829C8.64395 39.8804 8.64683 39.8784 8.65015 39.877C8.65361 39.8754 8.65744 39.8747 8.66166 39.8747C8.66576 39.8747 8.66946 39.8754 8.67279 39.877C8.67624 39.8784 8.67918 39.8804 8.68161 39.8829C8.68417 39.8854 8.68615 39.8883 8.68756 39.8918C8.68909 39.8953 8.68999 39.8989 8.69024 39.9028ZM8.70597 39.9305H8.68986C8.68845 39.937 8.68551 39.9419 8.68104 39.9451C8.67669 39.9483 8.67106 39.9499 8.66416 39.9499C8.65879 39.9499 8.65412 39.949 8.65015 39.9472C8.64619 39.9454 8.64293 39.9431 8.64037 39.9401C8.63781 39.937 8.63596 39.9336 8.63481 39.9297C8.63366 39.9257 8.63315 39.9216 8.63327 39.9172H8.70751C8.70776 39.9112 8.70719 39.9048 8.70578 39.8982C8.7045 39.8915 8.70207 39.8853 8.69849 39.8797C8.69504 39.874 8.69037 39.8694 8.68449 39.8658C8.67873 39.8621 8.67145 39.8602 8.66262 39.8602C8.65584 39.8602 8.64958 39.8615 8.64382 39.8641C8.6382 39.8666 8.63327 39.8702 8.62905 39.8749C8.62496 39.8795 8.62177 39.8849 8.61946 39.8912C8.61716 39.8975 8.61601 39.9044 8.61601 39.912C8.61627 39.9196 8.61735 39.9266 8.61927 39.933C8.62132 39.9394 8.62432 39.9449 8.62829 39.9496C8.63225 39.9542 8.63711 39.9578 8.64287 39.9603C8.64875 39.9629 8.65565 39.9642 8.66358 39.9642C8.67483 39.9642 8.68417 39.9614 8.69159 39.9557C8.699 39.9501 8.7038 39.9417 8.70597 39.9305Z" fill="black"/>
<path d="M8.78029 39.8246V39.9621H8.79755V39.8517H8.79793L8.86948 39.9621H8.88943V39.8246H8.87217V39.9361H8.87178L8.79966 39.8246H8.78029Z" fill="black"/>
<path d="M8.92811 39.9124C8.92811 39.9064 8.92888 39.901 8.93042 39.8964C8.93208 39.8917 8.93432 39.8877 8.93713 39.8845C8.93994 39.8813 8.9432 39.8788 8.94691 39.8772C8.95075 39.8755 8.95478 39.8747 8.959 39.8747C8.96322 39.8747 8.96718 39.8755 8.97089 39.8772C8.97472 39.8788 8.97805 39.8813 8.98086 39.8845C8.98368 39.8877 8.98585 39.8917 8.98738 39.8964C8.98905 39.901 8.98988 39.9064 8.98988 39.9124C8.98988 39.9184 8.98905 39.9238 8.98738 39.9286C8.98585 39.9332 8.98368 39.9371 8.98086 39.9403C8.97805 39.9434 8.97472 39.9458 8.97089 39.9474C8.96718 39.9491 8.96322 39.9499 8.959 39.9499C8.95478 39.9499 8.95075 39.9491 8.94691 39.9474C8.9432 39.9458 8.93994 39.9434 8.93713 39.9403C8.93432 39.9371 8.93208 39.9332 8.93042 39.9286C8.92888 39.9238 8.92811 39.9184 8.92811 39.9124ZM8.91085 39.9124C8.91085 39.9197 8.91187 39.9265 8.91392 39.9328C8.91597 39.9391 8.91903 39.9446 8.92313 39.9494C8.92722 39.954 8.93227 39.9576 8.93828 39.9603C8.94429 39.9629 8.9512 39.9642 8.959 39.9642C8.96692 39.9642 8.97383 39.9629 8.97971 39.9603C8.98572 39.9576 8.99077 39.954 8.99487 39.9494C8.99896 39.9446 9.00203 39.9391 9.00407 39.9328C9.00612 39.9265 9.00714 39.9197 9.00714 39.9124C9.00714 39.9051 9.00612 39.8983 9.00407 39.892C9.00203 39.8856 8.99896 39.8801 8.99487 39.8754C8.99077 39.8707 8.98572 39.867 8.97971 39.8643C8.97383 39.8616 8.96692 39.8602 8.959 39.8602C8.9512 39.8602 8.94429 39.8616 8.93828 39.8643C8.93227 39.867 8.92722 39.8707 8.92313 39.8754C8.91903 39.8801 8.91597 39.8856 8.91392 39.892C8.91187 39.8983 8.91085 39.9051 8.91085 39.9124Z" fill="black"/>
<path d="M9.10846 39.9621V39.8625H9.09216V39.9188C9.09216 39.9232 9.09152 39.9274 9.09024 39.9313C9.08909 39.935 9.0873 39.9383 9.08487 39.9411C9.08244 39.9439 9.07937 39.9461 9.07566 39.9476C9.07208 39.9492 9.0678 39.9499 9.06281 39.9499C9.05654 39.9499 9.05162 39.9481 9.04804 39.9446C9.04446 39.941 9.04267 39.9361 9.04267 39.9299V39.8625H9.02636V39.928C9.02636 39.9334 9.02688 39.9383 9.0279 39.9428C9.02905 39.9472 9.03097 39.951 9.03365 39.9542C9.03634 39.9574 9.03986 39.9599 9.0442 39.9617C9.04855 39.9634 9.05399 39.9642 9.06051 39.9642C9.0678 39.9642 9.07413 39.9628 9.0795 39.96C9.08487 39.957 9.08928 39.9524 9.09273 39.9463H9.09312V39.9621H9.10846Z" fill="black"/>
<path d="M9.13295 39.8625V39.9621H9.14925V39.9059C9.14925 39.9014 9.14983 39.8972 9.15098 39.8935C9.15226 39.8897 9.15411 39.8863 9.15654 39.8835C9.15897 39.8807 9.16198 39.8785 9.16556 39.877C9.16927 39.8754 9.17361 39.8747 9.1786 39.8747C9.18487 39.8747 9.18979 39.8765 9.19337 39.8801C9.19695 39.8836 9.19874 39.8885 9.19874 39.8947V39.9621H9.21505V39.8966C9.21505 39.8912 9.21447 39.8863 9.21332 39.882C9.2123 39.8775 9.21044 39.8736 9.20776 39.8704C9.20507 39.8672 9.20155 39.8647 9.19721 39.8629C9.19286 39.8611 9.18742 39.8602 9.1809 39.8602C9.1662 39.8602 9.15546 39.8663 9.14868 39.8783H9.14829V39.8625H9.13295Z" fill="black"/>
<path d="M9.31383 39.8904V39.84H9.3495C9.35986 39.84 9.36741 39.8422 9.37214 39.8466C9.377 39.8508 9.37943 39.857 9.37943 39.8652C9.37943 39.8734 9.377 39.8797 9.37214 39.8841C9.36741 39.8885 9.35986 39.8906 9.3495 39.8904H9.31383ZM9.2956 39.8246V39.9621H9.31383V39.9059H9.35564C9.36945 39.906 9.37987 39.9025 9.38691 39.8953C9.39407 39.8881 9.39765 39.8781 9.39765 39.8652C9.39765 39.8524 9.39407 39.8424 9.38691 39.8354C9.37987 39.8282 9.36945 39.8246 9.35564 39.8246H9.2956Z" fill="black"/>
<path d="M9.41672 39.8625V39.9621H9.43303V39.9178C9.43303 39.9114 9.43367 39.9057 9.43495 39.9008C9.43622 39.8958 9.43827 39.8916 9.44108 39.8881C9.4439 39.8847 9.44761 39.882 9.45221 39.8802C9.45681 39.8784 9.46237 39.8775 9.4689 39.8775V39.8602C9.46007 39.86 9.45278 39.8618 9.44703 39.8656C9.44128 39.8695 9.43642 39.8754 9.43245 39.8835H9.43207V39.8625H9.41672Z" fill="black"/>
<path d="M9.48969 39.9124C9.48969 39.9064 9.49046 39.901 9.492 39.8964C9.49366 39.8917 9.4959 39.8877 9.49871 39.8845C9.50152 39.8813 9.50478 39.8788 9.50849 39.8772C9.51233 39.8755 9.51636 39.8747 9.52058 39.8747C9.5248 39.8747 9.52876 39.8755 9.53247 39.8772C9.53631 39.8788 9.53963 39.8813 9.54244 39.8845C9.54526 39.8877 9.54743 39.8917 9.54897 39.8964C9.55063 39.901 9.55146 39.9064 9.55146 39.9124C9.55146 39.9184 9.55063 39.9238 9.54897 39.9286C9.54743 39.9332 9.54526 39.9371 9.54244 39.9403C9.53963 39.9434 9.53631 39.9458 9.53247 39.9474C9.52876 39.9491 9.5248 39.9499 9.52058 39.9499C9.51636 39.9499 9.51233 39.9491 9.50849 39.9474C9.50478 39.9458 9.50152 39.9434 9.49871 39.9403C9.4959 39.9371 9.49366 39.9332 9.492 39.9286C9.49046 39.9238 9.48969 39.9184 9.48969 39.9124ZM9.47243 39.9124C9.47243 39.9197 9.47345 39.9265 9.4755 39.9328C9.47755 39.9391 9.48062 39.9446 9.48471 39.9494C9.4888 39.954 9.49385 39.9576 9.49986 39.9603C9.50587 39.9629 9.51278 39.9642 9.52058 39.9642C9.52851 39.9642 9.53541 39.9629 9.54129 39.9603C9.5473 39.9576 9.55235 39.954 9.55645 39.9494C9.56054 39.9446 9.56361 39.9391 9.56565 39.9328C9.5677 39.9265 9.56872 39.9197 9.56872 39.9124C9.56872 39.9051 9.5677 39.8983 9.56565 39.892C9.56361 39.8856 9.56054 39.8801 9.55645 39.8754C9.55235 39.8707 9.5473 39.867 9.54129 39.8643C9.53541 39.8616 9.52851 39.8602 9.52058 39.8602C9.51278 39.8602 9.50587 39.8616 9.49986 39.8643C9.49385 39.867 9.4888 39.8707 9.48471 39.8754C9.48062 39.8801 9.47755 39.8856 9.4755 39.892C9.47345 39.8983 9.47243 39.9051 9.47243 39.9124Z" fill="black"/>
<path d="M9.60521 39.8446V39.8246H9.5889V39.8446H9.60521ZM9.60521 39.9746V39.8625H9.5889V39.9719C9.5889 39.977 9.58827 39.9806 9.58699 39.9825C9.58571 39.9845 9.58328 39.9856 9.5797 39.9856H9.57625C9.57573 39.9856 9.57529 39.9855 9.5749 39.9854C9.57439 39.9854 9.57382 39.9853 9.57318 39.9852V39.9992C9.57573 39.9997 9.57848 40 9.58142 40C9.58871 40 9.59447 39.9979 9.59869 39.9938C9.60304 39.9899 9.60521 39.9834 9.60521 39.9746Z" fill="black"/>
<path d="M9.69933 39.9028H9.64236C9.64262 39.8989 9.64345 39.8953 9.64485 39.892C9.64626 39.8885 9.64818 39.8855 9.65061 39.8829C9.65304 39.8804 9.65591 39.8784 9.65924 39.877C9.66269 39.8754 9.66653 39.8747 9.67075 39.8747C9.67484 39.8747 9.67855 39.8754 9.68187 39.877C9.68533 39.8784 9.68827 39.8804 9.6907 39.8829C9.69325 39.8854 9.69524 39.8883 9.69664 39.8918C9.69818 39.8953 9.69907 39.8989 9.69933 39.9028ZM9.71506 39.9305H9.69894C9.69754 39.937 9.6946 39.9419 9.69012 39.9451C9.68577 39.9483 9.68015 39.9499 9.67324 39.9499C9.66787 39.9499 9.6632 39.949 9.65924 39.9472C9.65527 39.9454 9.65201 39.9431 9.64946 39.9401C9.6469 39.937 9.64504 39.9336 9.64389 39.9297C9.64274 39.9257 9.64223 39.9216 9.64236 39.9172H9.71659C9.71685 39.9112 9.71627 39.9048 9.71487 39.8982C9.71359 39.8915 9.71116 39.8853 9.70758 39.8797C9.70412 39.874 9.69946 39.8694 9.69357 39.8658C9.68782 39.8621 9.68053 39.8602 9.67171 39.8602C9.66493 39.8602 9.65866 39.8615 9.65291 39.8641C9.64728 39.8666 9.64236 39.8702 9.63814 39.8749C9.63405 39.8795 9.63085 39.8849 9.62855 39.8912C9.62625 39.8975 9.6251 39.9044 9.6251 39.912C9.62535 39.9196 9.62644 39.9266 9.62836 39.933C9.6304 39.9394 9.63341 39.9449 9.63737 39.9496C9.64134 39.9542 9.6462 39.9578 9.65195 39.9603C9.65783 39.9629 9.66474 39.9642 9.67267 39.9642C9.68392 39.9642 9.69325 39.9614 9.70067 39.9557C9.70809 39.9501 9.71288 39.9417 9.71506 39.9305Z" fill="black"/>
<path d="M9.80082 39.8945H9.8177C9.81706 39.8886 9.81552 39.8835 9.81309 39.8793C9.81067 39.8749 9.80753 39.8713 9.8037 39.8685C9.79999 39.8657 9.79564 39.8636 9.79065 39.8623C9.78579 39.8609 9.78055 39.8602 9.77492 39.8602C9.76712 39.8602 9.76028 39.8616 9.7544 39.8645C9.74852 39.8672 9.74359 39.8709 9.73963 39.8758C9.73579 39.8806 9.73292 39.8862 9.731 39.8928C9.72908 39.8992 9.72812 39.9061 9.72812 39.9136C9.72812 39.921 9.72908 39.9279 9.731 39.9342C9.73304 39.9403 9.73599 39.9456 9.73982 39.9501C9.74379 39.9546 9.74865 39.9581 9.7544 39.9605C9.76028 39.963 9.767 39.9642 9.77454 39.9642C9.7872 39.9642 9.79717 39.9609 9.80446 39.9542C9.81188 39.9475 9.81648 39.938 9.81827 39.9257H9.80159C9.80056 39.9334 9.79775 39.9394 9.79315 39.9436C9.78867 39.9478 9.7824 39.9499 9.77435 39.9499C9.76923 39.9499 9.76482 39.9489 9.76111 39.9469C9.7574 39.9448 9.7544 39.9421 9.7521 39.9388C9.7498 39.9353 9.74807 39.9314 9.74692 39.927C9.7459 39.9227 9.74538 39.9182 9.74538 39.9136C9.74538 39.9085 9.7459 39.9037 9.74692 39.8991C9.74794 39.8944 9.7496 39.8902 9.75191 39.8866C9.75434 39.883 9.75753 39.8801 9.7615 39.8779C9.76546 39.8758 9.77038 39.8747 9.77627 39.8747C9.78317 39.8747 9.78867 39.8764 9.79276 39.8799C9.79685 39.8833 9.79954 39.8882 9.80082 39.8945Z" fill="black"/>
<path d="M9.85915 39.8625V39.8327H9.84285V39.8625H9.82597V39.877H9.84285V39.9403C9.84285 39.9449 9.84329 39.9487 9.84419 39.9515C9.84508 39.9543 9.84643 39.9565 9.84822 39.958C9.85014 39.9596 9.85257 39.9607 9.85551 39.9613C9.85858 39.9618 9.86222 39.9621 9.86644 39.9621H9.87891V39.9476H9.87143C9.86887 39.9476 9.86676 39.9476 9.8651 39.9474C9.86356 39.9472 9.86235 39.9467 9.86145 39.9461C9.86056 39.9455 9.85992 39.9446 9.85954 39.9434C9.85928 39.9422 9.85915 39.9407 9.85915 39.9388V39.877H9.87891V39.8625H9.85915Z" fill="black"/>
</svg>
