<svg width="69" height="71" viewBox="0 0 69 71" fill="none" xmlns="http://www.w3.org/2000/svg">
<path d="M34.5 18.1359C34.5 27.7258 26.7769 35.5 17.25 35.5H0V18.1359C0 8.54592 7.72309 0.771729 17.25 0.771729C26.7769 0.771729 34.5 8.54592 34.5 18.1359Z" fill="#17CF97"/>
<path d="M34.5 52.8641C34.5 43.2742 42.2231 35.5 51.75 35.5H69V52.8641C69 62.4541 61.2766 70.2283 51.75 70.2283C42.2231 70.2283 34.5 62.4541 34.5 52.8641Z" fill="#17CF97"/>
<path d="M0 52.8641C0 62.4541 7.72309 70.2283 17.25 70.2283H34.5V52.8641C34.5 43.2742 26.7769 35.5 17.25 35.5C7.72309 35.5 0 43.2742 0 52.8641Z" fill="#17CF97"/>
<path d="M69 18.1359C69 8.54592 61.2766 0.771729 51.75 0.771729H34.5V18.1359C34.5 27.7258 42.2231 35.5 51.75 35.5C61.2766 35.5 69 27.7258 69 18.1359Z" fill="#17CF97"/>
</svg>
