<svg id="Camada_1" data-name="Camada 1" xmlns="http://www.w3.org/2000/svg" viewBox="0 0 967.33 372.2"><defs><style>.cls-1{fill:#fff;}.cls-2{fill:#ebebf2;}</style></defs><path class="cls-1" d="M135.92,269.52c18.35,16.27,18.35,46.38,0,62.65L117.4,348.58,13.77,256.73c-18.36-16.27-18.36-46.39,0-62.65l18.51-16.41Z"/><path class="cls-1" d="M163.45,121.9c-18.36-16.27-18.36-46.39,0-62.66L182,42.84,285.6,134.68C304,151,304,181.07,285.6,197.34l-18.51,16.4Z"/><path class="cls-2" d="M163.45,211.17c-18.36,16.27-18.36,46.39,0,62.65L182,290.23,285.6,198.38C304,182.12,304,152,285.6,135.73l-18.51-16.4Z"/><path class="cls-2" d="M135.92,180.24c18.35-16.27,18.35-46.38,0-62.65L117.4,101.18,13.77,193c-18.36,16.27-18.36,46.39,0,62.65l18.51,16.41Z"/><path class="cls-1" d="M426.24,125a27.45,27.45,0,0,0,4.93-16.14,25.43,25.43,0,0,0-3.57-13.44q-3.59-5.9-12-10.44T392.7,77.73a81.42,81.42,0,0,1-16.15-4.26Q371,71.16,369,68.16a11.66,11.66,0,0,1-2-6.67q0-6,6-9.38t15.27-3.39a40.75,40.75,0,0,1,13.53,2,27.15,27.15,0,0,1,10.64,7.05A12.55,12.55,0,0,0,419,61a8.36,8.36,0,0,0,6.58-1.25,6.77,6.77,0,0,0,3.28-5.22,8.61,8.61,0,0,0-2.12-6A38.63,38.63,0,0,0,411.16,37a57.11,57.11,0,0,0-22.52-4.16,56.47,56.47,0,0,0-19.05,3.19A33.87,33.87,0,0,0,355,45.73q-5.61,6.48-5.6,16.34,0,11,8.89,18.75T386.7,92.23q15.09,2.72,21.08,7.06t6,10.53q-.19,6.2-6.28,10.25t-18.27,4.06A42,42,0,0,1,372.78,121q-7.35-3.09-11.21-7.35a8.69,8.69,0,0,0-5.8-3.09,9.47,9.47,0,0,0-7,2.32,8.56,8.56,0,0,0-3.58,5.89,7.66,7.66,0,0,0,2.22,6.48q6.57,6.77,18,10.83a71.52,71.52,0,0,0,24.17,4.06q13.35,0,22.53-4.06A32.89,32.89,0,0,0,426.24,125Z"/><path class="cls-1" d="M441.61,53h10.06V101.9a39.76,39.76,0,0,0,4.54,19.23,35.31,35.31,0,0,0,12.38,13.35,32.54,32.54,0,0,0,17.69,4.93H490a10.79,10.79,0,0,0,7.35-2.52,8.07,8.07,0,0,0,2.9-6.38,9.29,9.29,0,0,0-2.22-6.38,7.1,7.1,0,0,0-5.52-2.51h-6.18A14.91,14.91,0,0,1,474.39,116q-4.74-5.61-4.74-14.11V53h18.17a8.33,8.33,0,0,0,6-2.22,7.12,7.12,0,0,0,2.32-5.32,7.47,7.47,0,0,0-2.32-5.8,8.54,8.54,0,0,0-6-2.13H469.65V8.89a8.68,8.68,0,0,0-2.51-6.38A8.93,8.93,0,0,0,460.56,0a8.59,8.59,0,0,0-8.89,8.89V37.51H441.61a8.51,8.51,0,0,0-6,2.13,7.47,7.47,0,0,0-2.32,5.8,7.12,7.12,0,0,0,2.32,5.32A8.31,8.31,0,0,0,441.61,53Z"/><path class="cls-1" d="M535.58,133.32a57.28,57.28,0,0,0,28.23,6.86,57.9,57.9,0,0,0,18.75-3.38,52.31,52.31,0,0,0,16.25-8.61,6.26,6.26,0,0,0,2.9-5.51,8.56,8.56,0,0,0-3.29-5.9A7.82,7.82,0,0,0,593,115a10.35,10.35,0,0,0-5.8,2,39.28,39.28,0,0,1-10.53,5.41,37.89,37.89,0,0,1-12.86,2.32A39.1,39.1,0,0,1,544,119.78a35.87,35.87,0,0,1-13.53-13.53A36.72,36.72,0,0,1,526,92.81h75a8.3,8.3,0,0,0,6-2.23,7.57,7.57,0,0,0,2.32-5.7q0-15.27-5.8-27a44,44,0,0,0-16.73-18.37q-10.92-6.67-25.81-6.67a52,52,0,0,0-26.78,6.86,48.33,48.33,0,0,0-18.27,19q-6.58,12.09-6.58,27.94,0,15.66,7,27.75A49.76,49.76,0,0,0,535.58,133.32Zm6.28-80q8-4.94,19-4.93,10.05,0,17.21,4.64a30.66,30.66,0,0,1,11,12.66,39.1,39.1,0,0,1,3.54,12.67h-66.5a41.77,41.77,0,0,1,3.5-11.41A31.64,31.64,0,0,1,541.86,53.27Z"/><path class="cls-1" d="M705.44,39.93a53.61,53.61,0,0,0-27.56-7.06,52.53,52.53,0,0,0-26.87,7A51.68,51.68,0,0,0,632,59a55.18,55.18,0,0,0-7.25,27.46v89.13a9.09,9.09,0,1,0,18.18,0V121.81a47.12,47.12,0,0,0,16.43,13.44,50.95,50.95,0,0,0,47.57-2A50.15,50.15,0,0,0,725,114.08a56.17,56.17,0,0,0,6.67-27.46,53.66,53.66,0,0,0-7-27.55A52.44,52.44,0,0,0,705.44,39.93Zm3.86,65.83a35.72,35.72,0,0,1-12.86,13.44,34.63,34.63,0,0,1-18.36,4.93,35.22,35.22,0,0,1-18.37-4.83A34.07,34.07,0,0,1,647,105.86a39.79,39.79,0,0,1-4.64-19.24A39.62,39.62,0,0,1,647,67.29a35.9,35.9,0,0,1,49.49-13.44A35.72,35.72,0,0,1,709.3,67.29,39,39,0,0,1,714,86.62,38.64,38.64,0,0,1,709.3,105.76Z"/><path class="cls-1" d="M843.78,121.62h-6.19A14.92,14.92,0,0,1,825.7,116Q821,110.4,821,101.9V53h18.18a8.32,8.32,0,0,0,6-2.22,7.12,7.12,0,0,0,2.32-5.32,7.47,7.47,0,0,0-2.32-5.8,8.53,8.53,0,0,0-6-2.13H821V8.89a8.68,8.68,0,0,0-2.51-6.38A8.93,8.93,0,0,0,811.87,0,8.59,8.59,0,0,0,803,8.89V37.51H792.93a8.54,8.54,0,0,0-6,2.13,7.47,7.47,0,0,0-2.32,5.8,7.12,7.12,0,0,0,2.32,5.32,8.33,8.33,0,0,0,6,2.22H803V101.9a39.76,39.76,0,0,0,4.54,19.23,35.31,35.31,0,0,0,12.38,13.35,32.57,32.57,0,0,0,17.69,4.93h3.67a10.79,10.79,0,0,0,7.35-2.52,8.07,8.07,0,0,0,2.9-6.38,9.29,9.29,0,0,0-2.22-6.38A7.09,7.09,0,0,0,843.78,121.62Z"/><path class="cls-1" d="M960.36,58.68a50.52,50.52,0,0,0-18.94-19,58.57,58.57,0,0,0-55,0,49.57,49.57,0,0,0-18.95,19q-6.87,12.09-6.86,27.94,0,15.66,6.86,27.75a49.57,49.57,0,0,0,18.95,18.95A54.84,54.84,0,0,0,914,140.18q15.66,0,27.65-6.86a49.86,49.86,0,0,0,18.85-18.95q6.87-12.09,6.87-27.75Q967.33,70.76,960.36,58.68Zm-15.08,47.37a34.43,34.43,0,0,1-12.76,13.25,38.07,38.07,0,0,1-37.12,0,34.51,34.51,0,0,1-12.76-13.25A39.47,39.47,0,0,1,878,86.62a40.07,40.07,0,0,1,4.64-19.53A34.34,34.34,0,0,1,895.4,53.75a38.07,38.07,0,0,1,37.12,0,34.27,34.27,0,0,1,12.76,13.34,40.07,40.07,0,0,1,4.64,19.53A39.47,39.47,0,0,1,945.28,106.05Z"/><path class="cls-1" d="M396.12,353.64h-6.18A14.91,14.91,0,0,1,378.05,348q-4.74-5.61-4.74-14.11V285h18.17a8.33,8.33,0,0,0,6-2.22,7.16,7.16,0,0,0,2.32-5.32,7.5,7.5,0,0,0-2.32-5.8,8.54,8.54,0,0,0-6-2.13H373.31V240.91a8.68,8.68,0,0,0-2.51-6.38,8.93,8.93,0,0,0-6.58-2.51,8.59,8.59,0,0,0-8.89,8.89v28.62H345.27a8.51,8.51,0,0,0-6,2.13,7.47,7.47,0,0,0-2.32,5.8,7.12,7.12,0,0,0,2.32,5.32,8.31,8.31,0,0,0,6,2.22h10.06v48.92a39.76,39.76,0,0,0,4.54,19.23,35.23,35.23,0,0,0,12.38,13.35,32.54,32.54,0,0,0,17.69,4.93h3.67a10.83,10.83,0,0,0,7.35-2.52,8.07,8.07,0,0,0,2.9-6.38,9.29,9.29,0,0,0-2.23-6.38A7.08,7.08,0,0,0,396.12,353.64Z"/><path class="cls-1" d="M490.38,271.56q-10.92-6.68-25.81-6.67a52,52,0,0,0-26.78,6.86,48.33,48.33,0,0,0-18.27,18.95q-6.58,12.09-6.58,27.94,0,15.66,7,27.75a49.76,49.76,0,0,0,19.34,18.95,57.28,57.28,0,0,0,28.23,6.86,57.9,57.9,0,0,0,18.75-3.38,52.14,52.14,0,0,0,16.24-8.61,6.24,6.24,0,0,0,2.9-5.51,8.55,8.55,0,0,0-3.28-5.9,7.83,7.83,0,0,0-5.42-1.83,10.35,10.35,0,0,0-5.8,2,39.28,39.28,0,0,1-10.53,5.41,37.89,37.89,0,0,1-12.86,2.32,39.1,39.1,0,0,1-19.82-4.93,36,36,0,0,1-13.54-13.53,36.89,36.89,0,0,1-4.49-13.44h75a8.33,8.33,0,0,0,6-2.22,7.59,7.59,0,0,0,2.32-5.71q0-15.27-5.81-27A43.89,43.89,0,0,0,490.38,271.56Zm-44.86,13.73q8-4.94,19.05-4.93,10.05,0,17.21,4.64a30.66,30.66,0,0,1,11,12.66,39.1,39.1,0,0,1,3.54,12.67h-66.5a41.77,41.77,0,0,1,3.5-11.41A31.64,31.64,0,0,1,445.52,285.29Z"/><path class="cls-1" d="M596,269.34a49.56,49.56,0,0,0-21.17-4.45A51.94,51.94,0,0,0,548,271.75a48.86,48.86,0,0,0-18.37,19.05Q523,303,523,318.64A54.33,54.33,0,0,0,529.82,346a51.15,51.15,0,0,0,18.85,19.14q12,7.07,27.46,7.06,20.88,0,34.8-12.95a6.41,6.41,0,0,0,2.23-5.51,8.35,8.35,0,0,0-3.39-5.71,7.28,7.28,0,0,0-5.32-1.74,10.56,10.56,0,0,0-5.89,2.51,27.85,27.85,0,0,1-10,5.61,41.34,41.34,0,0,1-12.47,1.74,34.23,34.23,0,0,1-31.23-18.27,39.83,39.83,0,0,1-4.54-19.24,42.75,42.75,0,0,1,4.35-19.72,32.55,32.55,0,0,1,12.08-13.24,33.73,33.73,0,0,1,18-4.74,32.59,32.59,0,0,1,25.13,11,10.5,10.5,0,0,0,5.51,3.09,7,7,0,0,0,5.51-1.16,9.1,9.1,0,0,0,4-5.41,6.27,6.27,0,0,0-1.84-5.8A50,50,0,0,0,596,269.34Z"/><path class="cls-1" d="M703,270.4a49.93,49.93,0,0,0-24-5.7,47.72,47.72,0,0,0-23,5.51,43.72,43.72,0,0,0-10.64,8V229.51a9.09,9.09,0,1,0-18.17,0v133a9,9,0,0,0,2.51,6.48,9.59,9.59,0,0,0,13.15,0,9,9,0,0,0,2.51-6.48V307a22.37,22.37,0,0,1,4.07-13.15,29.07,29.07,0,0,1,10.92-9.28A33.9,33.9,0,0,1,676,281.13a36.49,36.49,0,0,1,16.34,3.58,26.36,26.36,0,0,1,11.41,10.83q4.15,7.24,4.16,18.46v48.53a9.09,9.09,0,1,0,18.17,0V314q0-15.86-6.18-26.87A41.62,41.62,0,0,0,703,270.4Z"/></svg>